REM DIRINDEX 1\2,1\3
REM DIRNAME cjc080,folder01,folder02
TITLE ""
FILE "ScrambleS_3Part1_Theme070.mp3" MP3
  TRACK 01 AUDIO
    TITLE "3:cjc080_0354"
    INDEX 01 00:00:00
  TRACK 02 AUDIO
    TITLE "0:"
    INDEX 01 00:01:22
  TRACK 03 AUDIO
    TITLE "2:cjc080_0355"
    INDEX 01 00:02:42
  TRACK 04 AUDIO
    TITLE "0:"
    INDEX 01 00:06:67
  TRACK 05 AUDIO
    TITLE "2:cjc080_0356"
    INDEX 01 00:08:01
  TRACK 06 AUDIO
    TITLE "0:"
    INDEX 01 00:17:00
